<svg xmlns="http://www.w3.org/2000/svg" data-name="Layer 1" width="419" height="484" viewBox="0 0 419 484" xmlns:xlink="http://www.w3.org/1999/xlink">
  <path d="M383.03037,563.91909a75.18955,75.18955,0,0,1-18.63955-2.41115l-1.19992-.332-1.11309-.55768c-40.242-20.17656-74.192-46.827-100.90712-79.21137a299.86458,299.86458,0,0,1-50.94916-90.47014,348.20978,348.20978,0,0,1-19.69086-122.66453c.017-.87611.03139-1.55256.03139-2.01861,0-20.28912,11.262-38.0913,28.69121-45.35357,13.33947-5.55813,134.45539-55.30526,143.20632-58.89963,16.48038-8.25772,34.062-1.36535,36.87554-.16006,6.31094,2.58025,118.2752,48.375,142.47062,59.89621,24.93578,11.87415,31.5889,33.20566,31.5889,43.93787,0,48.58822-8.415,93.99778-25.01129,134.9674a312.51684,312.51684,0,0,1-56.16213,90.51087c-45.84677,51.59381-91.7057,69.8841-92.14828,70.0453A50.11,50.11,0,0,1,383.03037,563.91909Zm-10.78453-26.71374c3.97586.89138,13.12949,2.22845,19.0957.052,7.57929-2.76408,45.96243-22.668,81.83036-63.03189,49.55709-55.769,74.70242-125.87542,74.73919-208.37177-.08852-1.67134-1.27542-13.59188-17.06153-21.10867C507.12331,233.44669,390.746,185.86014,389.5732,185.38052l-.32154-.13631c-2.43886-1.022-10.20055-3.1747-15.55082-.371l-1.07124.49943c-1.2972.53279-129.86317,53.33754-143.57481,59.05064-9.59168,3.99651-13.00917,13.89729-13.00917,21.83037,0,.57973-.015,1.423-.03619,2.51294C214.91358,325.21375,227.97577,464.11262,372.24584,537.20535Z" transform="translate(-190.46477 -158)" fill="#3f3d56"/>
  <path d="M367.78865,173.58611S238.05415,226.86992,224.154,232.66164s-20.85019,19.69184-20.85019,33.592S192.87875,461.53177,367.78865,549.22768c0,0,15.87478,4.39241,27.91882,0s164.9454-78.52642,164.9454-283.55325c0,0,0-20.85018-24.32522-32.43362s-141.93358-59.6547-141.93358-59.6547S379.95125,167.21522,367.78865,173.58611Z" transform="translate(-190.46477 -158)" fill="#152442"/>
  <path d="M381.68877,215.28648V499.53673S250.79593,436.53013,251.95428,270.887Z" transform="translate(-190.46477 -158)" opacity="0.5" fill="#fff"/>
  <polygon points="192.931 261.581 151.235 207.969 175.483 189.11 195.226 214.494 261.921 144.088 284.224 165.219 192.931 261.581" fill="#fff"/>
</svg>