<svg xmlns="http://www.w3.org/2000/svg" data-name="Layer 1" width="857.75287" height="601.71408" viewBox="0 0 857.75287 601.71408" xmlns:xlink="http://www.w3.org/1999/xlink">
  <path d="M288.51423,252.36426H278.099a3.75037,3.75037,0,0,0-3.75037,3.75037v0a3.75037,3.75037,0,0,1-3.75037,3.75037H235.87512a3.75037,3.75037,0,0,1-3.75037-3.75037l-.68657-3.80187.04463.05149-.04463-.05149-6.2941-8.02425a2.1845,2.1845,0,0,0-1.749-.84963H211.59124a2.22543,2.22543,0,0,0-2.22277,2.22276l-.24372,6.65112h-4.46246a7.1371,7.1371,0,0,0-7.1371,7.1371v46.48379a6.33359,6.33359,0,0,0,6.33359,6.33359h84.65545a6.33967,6.33967,0,0,0,6.33186-6.33359V258.69612A6.33186,6.33186,0,0,0,288.51423,252.36426Z" transform="translate(-171.12356 -149.14296)" fill="#3d4f58"/>
  <path d="M231.44161,252.14113H209.36847V245.49a2.22542,2.22542,0,0,1,2.22277-2.22276h11.80381a2.1845,2.1845,0,0,1,1.749.84963Z" transform="translate(-171.12356 -149.14296)" fill="#3d4f58"/>
  <path d="M242.74357,307.15232H205.88719a4.40547,4.40547,0,0,1-4.4005-4.4005V292.67223a4.40546,4.40546,0,0,1,4.4005-4.4005H250.1235a4.40547,4.40547,0,0,1,4.4005,4.4005v2.69967A11.79378,11.79378,0,0,1,242.74357,307.15232Z" transform="translate(-171.12356 -149.14296)" fill="#fff"/>
  <path d="M216.49667,295.87488h-9.097a2.23135,2.23135,0,1,1,0-4.46269h9.097a2.23135,2.23135,0,1,1,0,4.46269Z" transform="translate(-171.12356 -149.14296)" fill="#3d4f58"/>
  <path d="M247.39219,302.91219H207.39966a2.23135,2.23135,0,1,1,0-4.46269h39.99253a2.23135,2.23135,0,1,1,0,4.46269Z" transform="translate(-171.12356 -149.14296)" fill="#3d4f58"/>
  <path d="M288.51423,398.36426H278.099a3.75037,3.75037,0,0,0-3.75037,3.75037v0a3.75037,3.75037,0,0,1-3.75037,3.75037H235.87512a3.75037,3.75037,0,0,1-3.75037-3.75037l-.68657-3.80187.04463.05149-.04463-.05149-6.2941-8.02425a2.1845,2.1845,0,0,0-1.749-.84963H211.59124a2.22543,2.22543,0,0,0-2.22277,2.22276l-.24372,6.65112h-4.46246a7.1371,7.1371,0,0,0-7.1371,7.1371v46.48379a6.33359,6.33359,0,0,0,6.33359,6.33359h84.65545a6.33967,6.33967,0,0,0,6.33186-6.33359V404.69612A6.33186,6.33186,0,0,0,288.51423,398.36426Z" transform="translate(-171.12356 -149.14296)" fill="#3d4f58"/>
  <path d="M231.44161,398.14113H209.36847V391.49a2.22542,2.22542,0,0,1,2.22277-2.22276h11.80381a2.1845,2.1845,0,0,1,1.749.84963Z" transform="translate(-171.12356 -149.14296)" fill="#3d4f58"/>
  <path d="M242.74357,453.15232H205.88719a4.40547,4.40547,0,0,1-4.4005-4.4005V438.67223a4.40546,4.40546,0,0,1,4.4005-4.4005H250.1235a4.40547,4.40547,0,0,1,4.4005,4.4005v2.69967A11.79378,11.79378,0,0,1,242.74357,453.15232Z" transform="translate(-171.12356 -149.14296)" fill="#fff"/>
  <path d="M216.49667,441.87488h-9.097a2.23135,2.23135,0,1,1,0-4.46269h9.097a2.23135,2.23135,0,1,1,0,4.46269Z" transform="translate(-171.12356 -149.14296)" fill="#3d4f58"/>
  <path d="M247.39219,448.91219H207.39966a2.23135,2.23135,0,1,1,0-4.46269h39.99253a2.23135,2.23135,0,1,1,0,4.46269Z" transform="translate(-171.12356 -149.14296)" fill="#3d4f58"/>
  <path d="M288.51423,544.36426H278.099a3.75037,3.75037,0,0,0-3.75037,3.75037v0a3.75037,3.75037,0,0,1-3.75037,3.75037H235.87512a3.75037,3.75037,0,0,1-3.75037-3.75037l-.68657-3.80187.04463.05149-.04463-.05149-6.2941-8.02425a2.1845,2.1845,0,0,0-1.749-.84963H211.59124a2.22543,2.22543,0,0,0-2.22277,2.22276l-.24372,6.65112h-4.46246a7.1371,7.1371,0,0,0-7.1371,7.1371v46.48379a6.33359,6.33359,0,0,0,6.33359,6.33359h84.65545a6.33967,6.33967,0,0,0,6.33186-6.33359V550.69612A6.33186,6.33186,0,0,0,288.51423,544.36426Z" transform="translate(-171.12356 -149.14296)" fill="#3d4f58"/>
  <path d="M231.44161,544.14113H209.36847V537.49a2.22542,2.22542,0,0,1,2.22277-2.22276h11.80381a2.1845,2.1845,0,0,1,1.749.84963Z" transform="translate(-171.12356 -149.14296)" fill="#3d4f58"/>
  <path d="M242.74357,599.15232H205.88719a4.40547,4.40547,0,0,1-4.4005-4.4005V584.67223a4.40546,4.40546,0,0,1,4.4005-4.4005H250.1235a4.40547,4.40547,0,0,1,4.4005,4.4005v2.69967A11.79378,11.79378,0,0,1,242.74357,599.15232Z" transform="translate(-171.12356 -149.14296)" fill="#fff"/>
  <path d="M216.49667,587.87488h-9.097a2.23134,2.23134,0,1,1,0-4.46269h9.097a2.23135,2.23135,0,1,1,0,4.46269Z" transform="translate(-171.12356 -149.14296)" fill="#3d4f58"/>
  <path d="M247.39219,594.91219H207.39966a2.23135,2.23135,0,1,1,0-4.46269h39.99253a2.23135,2.23135,0,1,1,0,4.46269Z" transform="translate(-171.12356 -149.14296)" fill="#3d4f58"/>
  <path d="M477.0138,277.26725a6.1637,6.1637,0,0,0-6.15668,6.15691v107.8909a6.1637,6.1637,0,0,0,6.15668,6.15691H629.62212a6.1637,6.1637,0,0,0,6.15668-6.15691V283.42416a6.1637,6.1637,0,0,0-6.15668-6.15691Z" transform="translate(-171.12356 -149.14296)" fill="#e6e6e6"/>
  <path d="M574.738,392.22135H481.326a6.63382,6.63382,0,0,1-6.62634-6.62657v-97.8561a6.63382,6.63382,0,0,1,6.62634-6.62657H625.31081a6.634,6.634,0,0,1,6.62657,6.62657v47.2831A57.26429,57.26429,0,0,1,574.738,392.22135Z" transform="translate(-171.12356 -149.14296)" fill="#fff"/>
  <path d="M538.14676,308.193H515.94888a2.11981,2.11981,0,1,1,0-4.23961h22.19788a2.11981,2.11981,0,0,1,0,4.23961Z" transform="translate(-171.12356 -149.14296)" fill="#3a6df0"/>
  <path d="M587.90708,316.86306h-71.9582a2.11981,2.11981,0,1,1,0-4.23961h71.9582a2.11981,2.11981,0,0,1,0,4.23961Z" transform="translate(-171.12356 -149.14296)" fill="#e6e6e6"/>
  <path d="M587.90708,326.81512h-71.9582a2.11981,2.11981,0,1,1,0-4.23961h71.9582a2.11981,2.11981,0,0,1,0,4.23961Z" transform="translate(-171.12356 -149.14296)" fill="#e6e6e6"/>
  <path d="M587.90708,336.76719h-71.9582a2.11981,2.11981,0,1,1,0-4.23962h71.9582a2.11981,2.11981,0,0,1,0,4.23962Z" transform="translate(-171.12356 -149.14296)" fill="#e6e6e6"/>
  <path d="M587.90708,346.71925h-71.9582a2.11981,2.11981,0,1,1,0-4.23961h71.9582a2.11981,2.11981,0,0,1,0,4.23961Z" transform="translate(-171.12356 -149.14296)" fill="#e6e6e6"/>
  <path d="M645.60277,352.59426H615.47883a10.84718,10.84718,0,0,0-10.84719,10.84718v0a10.84718,10.84718,0,0,1-10.84718,10.84719H493.35483a10.84719,10.84719,0,0,1-10.84719-10.84719l-1.98575-10.99613.12908.14893-.12908-.14893-18.20441-23.20852a6.31822,6.31822,0,0,0-5.05872-2.45738H423.11864a6.43658,6.43658,0,0,0-6.42889,6.42889l-.70494,19.237H403.07806a20.64261,20.64261,0,0,0-20.64261,20.64261V507.53287a18.31862,18.31862,0,0,0,18.31862,18.31861h244.8487a18.3362,18.3362,0,0,0,18.31361-18.31861v-136.625A18.31361,18.31361,0,0,0,645.60277,352.59426Z" transform="translate(-171.12356 -149.14296)" fill="#3d4f58"/>
  <path d="M480.53183,351.94889H416.68975v-19.237a6.43658,6.43658,0,0,1,6.42889-6.42889h34.14012a6.31822,6.31822,0,0,1,5.05872,2.45738Z" transform="translate(-171.12356 -149.14296)" fill="#3d4f58"/>
  <path d="M513.22044,511.0576H406.62083a12.74193,12.74193,0,0,1-12.72755-12.72755V469.17686a12.74193,12.74193,0,0,1,12.72755-12.72755H534.56538a12.74194,12.74194,0,0,1,12.72756,12.72755v7.80825A34.11113,34.11113,0,0,1,513.22044,511.0576Z" transform="translate(-171.12356 -149.14296)" fill="#fff"/>
  <path d="M437.30661,478.43988H410.99534a6.4537,6.4537,0,0,1,0-12.90741h26.31127a6.45371,6.45371,0,1,1,0,12.90741Z" transform="translate(-171.12356 -149.14296)" fill="#3d4f58"/>
  <path d="M526.66564,498.79388H410.99534a6.4537,6.4537,0,0,1,0-12.90741h115.6703a6.45371,6.45371,0,1,1,0,12.90741Z" transform="translate(-171.12356 -149.14296)" fill="#3d4f58"/>
  <path d="M741.18378,183.62715h-568.293a1.807,1.807,0,0,1,0-3.61318h568.293a1.807,1.807,0,0,1,0,3.61318Z" transform="translate(-171.12356 -149.14296)" fill="#cacaca"/>
  <ellipse cx="32.69152" cy="10.82345" rx="10.58751" ry="10.82345" fill="#3f3d56"/>
  <ellipse cx="69.26654" cy="10.82345" rx="10.58751" ry="10.82345" fill="#3f3d56"/>
  <ellipse cx="105.84156" cy="10.82345" rx="10.58751" ry="10.82345" fill="#3f3d56"/>
  <path d="M719.16252,151.82566h-25.981a1.96762,1.96762,0,0,0,0,3.93446h25.981a1.96762,1.96762,0,0,0,0-3.93446Z" transform="translate(-171.12356 -149.14296)" fill="#3f3d56"/>
  <path d="M719.16252,159.21h-25.981a1.96762,1.96762,0,0,0,0,3.93446h25.981a1.96762,1.96762,0,0,0,0-3.93446Z" transform="translate(-171.12356 -149.14296)" fill="#3f3d56"/>
  <path d="M719.16252,166.5847h-25.981a1.96762,1.96762,0,0,0,0,3.93446h25.981a1.96762,1.96762,0,0,0,0-3.93446Z" transform="translate(-171.12356 -149.14296)" fill="#3f3d56"/>
  <path d="M849.50107,370.05016a4.9479,4.9479,0,0,0-6.94961.74608L788.19523,438.2243a4.9479,4.9479,0,0,0,.74582,6.94964l95.3749,76.88519a4.94789,4.94789,0,0,0,6.94961-.74607L945.62179,453.885a4.9479,4.9479,0,0,0-.74582-6.94964Z" transform="translate(-171.12356 -149.14296)" fill="#ccc"/>
  <path d="M852.66061,491.12668,794.28134,444.065a5.32528,5.32528,0,0,1-.80272-7.47977l49.30063-61.15667a5.32528,5.32528,0,0,1,7.47975-.803l89.98549,72.54059a5.32545,5.32545,0,0,1,.80286,7.47989l-23.82158,29.5503A45.96876,45.96876,0,0,1,852.66061,491.12668Z" transform="translate(-171.12356 -149.14296)" fill="#fff"/>
  <path d="M872.12643,420.17692l-13.8729-11.18346a1.70167,1.70167,0,1,1,2.13594-2.64961l13.87291,11.18346a1.70167,1.70167,0,0,1-2.13595,2.64961Z" transform="translate(-171.12356 -149.14296)" fill="#3a6df0"/>
  <path d="M898.85686,450.665,853.88548,414.412a1.70167,1.70167,0,1,1,2.13595-2.64961l44.97138,36.25307a1.70167,1.70167,0,0,1-2.13595,2.64961Z" transform="translate(-171.12356 -149.14296)" fill="#e6e6e6"/>
  <path d="M893.84294,456.88472l-44.97138-36.25308a1.70167,1.70167,0,1,1,2.13595-2.64961l44.97138,36.25308a1.70167,1.70167,0,0,1-2.13595,2.64961Z" transform="translate(-171.12356 -149.14296)" fill="#e6e6e6"/>
  <path d="M888.829,463.10441l-44.97138-36.25307a1.70167,1.70167,0,1,1,2.13594-2.64961L890.965,460.4548a1.70167,1.70167,0,0,1-2.13594,2.64961Z" transform="translate(-171.12356 -149.14296)" fill="#e6e6e6"/>
  <path d="M883.81509,469.3241,838.84371,433.071a1.70167,1.70167,0,1,1,2.13595-2.64961L885.951,466.6745a1.70167,1.70167,0,0,1-2.13595,2.6496Z" transform="translate(-171.12356 -149.14296)" fill="#e6e6e6"/>
  <path d="M653.97994,541.94146a26.16382,26.16382,0,1,1,26.16383-26.16382A26.16384,26.16384,0,0,1,653.97994,541.94146Z" transform="translate(-171.12356 -149.14296)" fill="#3a6df0"/>
  <path d="M664.30349,513.19679h-7.74262v-7.74272a2.58093,2.58093,0,1,0-5.16186,0v7.74272h-7.74272a2.58089,2.58089,0,1,0,0,5.16178H651.399v7.74271a2.58093,2.58093,0,1,0,5.16186,0v-7.74271h7.74262a2.58089,2.58089,0,1,0,0-5.16178Z" transform="translate(-171.12356 -149.14296)" fill="#fff"/>
  <path d="M292.52734,324.288a12.51039,12.51039,0,1,1,12.51039-12.51038A12.51039,12.51039,0,0,1,292.52734,324.288Z" transform="translate(-171.12356 -149.14296)" fill="#3a6df0"/>
  <path d="M297.46361,310.54359H287.591a1.23407,1.23407,0,0,0,0,2.46814h9.87259a1.23407,1.23407,0,1,0,0-2.46814Z" transform="translate(-171.12356 -149.14296)" fill="#fff"/>
  <path d="M292.52734,468.288a12.51039,12.51039,0,1,1,12.51039-12.51038A12.51039,12.51039,0,0,1,292.52734,468.288Z" transform="translate(-171.12356 -149.14296)" fill="#3a6df0"/>
  <path d="M297.46361,454.54359H287.591a1.23407,1.23407,0,0,0,0,2.46814h9.87259a1.23407,1.23407,0,1,0,0-2.46814Z" transform="translate(-171.12356 -149.14296)" fill="#fff"/>
  <path d="M292.52734,612.288a12.51038,12.51038,0,1,1,12.51039-12.51038A12.51039,12.51039,0,0,1,292.52734,612.288Z" transform="translate(-171.12356 -149.14296)" fill="#3a6df0"/>
  <path d="M297.46361,598.54359H287.591a1.23407,1.23407,0,0,0,0,2.46814h9.87259a1.23407,1.23407,0,1,0,0-2.46814Z" transform="translate(-171.12356 -149.14296)" fill="#fff"/>
</svg>