<?xml version="1.0" encoding="iso-8859-1"?>
<!-- Generator: Adobe Illustrator 19.0.0, SVG Export Plug-In . SVG Version: 6.00 Build 0)  -->
<svg version="1.1" id="Capa_1" xmlns="http://www.w3.org/2000/svg" xmlns:xlink="http://www.w3.org/1999/xlink" x="0px" y="0px"
	 viewBox="0 0 490 490" style="enable-background:new 0 0 490 490;" xml:space="preserve">
<path d="M0,67.766v354.468h490V67.766H0z M469.149,401.383H20.851V158.055l48.116,43.399h94.534
	c-0.496,3.645-0.775,7.359-0.775,11.139c0,15.581,4.354,30.164,11.909,42.598l-26.254,98.008l36.398-12.329l25.372,28.884
	l20.416-76.18c4.69,0.834,9.508,1.294,14.435,1.294c4.926,0,9.745-0.46,14.435-1.294l20.415,76.18l25.37-28.884l36.399,12.329
	l-26.254-98.009c7.555-12.433,11.909-27.016,11.909-42.597c0-3.779-0.279-7.493-0.775-11.139h94.533l48.117-43.399V401.383z
	 M298.987,274.598l12.414,46.348l-12.675-4.287l-8.817,10.049l-10.561-39.381C286.508,284.022,293.111,279.721,298.987,274.598z
	 M245,274.016c-33.873,0-61.423-27.55-61.423-61.423c0-33.873,27.55-61.423,61.423-61.423s61.423,27.55,61.423,61.423
	C306.423,246.466,278.873,274.016,245,274.016z M191.013,274.599c5.876,5.123,12.48,9.424,19.64,12.728l-10.562,39.381
	l-8.817-10.049l-12.676,4.287L191.013,274.599z M469.149,129.983l-56.139,50.621h-92.209
	c-12.505-29.523-41.773-50.285-75.801-50.285c-34.028,0-63.295,20.763-75.801,50.285H76.99l-56.138-50.621V88.618h448.298V129.983z"
	/>
<g>
</g>
<g>
</g>
<g>
</g>
<g>
</g>
<g>
</g>
<g>
</g>
<g>
</g>
<g>
</g>
<g>
</g>
<g>
</g>
<g>
</g>
<g>
</g>
<g>
</g>
<g>
</g>
<g>
</g>
</svg>
